<svg width="32" height="32" viewBox="0 0 32 32" fill="none" xmlns="http://www.w3.org/2000/svg">
<path d="M16 30.6667C24.1002 30.6667 30.6667 24.1002 30.6667 16C30.6667 7.89982 24.1002 1.33333 16 1.33333C7.89983 1.33333 1.33334 7.89982 1.33334 16C1.33334 24.1002 7.89983 30.6667 16 30.6667Z" fill="#58595B"/>
<path d="M19.0836 25.2548C19.0836 24.878 19.0969 23.646 19.0969 22.1155C19.0969 21.0483 18.7313 20.352 18.3211 19.9969C20.8684 19.7137 23.5445 18.7463 23.5445 14.3525C23.5445 13.1036 23.1007 12.0831 22.3672 11.282C22.486 10.9939 22.8777 9.83026 22.2551 8.25453C22.2551 8.25453 21.2957 7.94706 19.1123 9.4272C18.198 9.1736 17.2187 9.04666 16.2464 9.04226C15.2741 9.04653 14.2955 9.1736 13.3831 9.4272C11.1969 7.94706 10.2363 8.25453 10.2363 8.25453C9.61519 9.83026 10.0067 10.9937 10.1255 11.282C9.39359 12.0831 8.94666 13.1037 8.94666 14.3525C8.94666 18.7359 11.6179 19.7168 14.1587 20.0061C13.8316 20.2919 13.5351 20.7964 13.4324 21.5359C12.7796 21.8281 11.1237 22.3337 10.1035 20.5848C10.1035 20.5848 9.49853 19.4867 8.34986 19.4059C8.34986 19.4059 7.23373 19.3913 8.27159 20.1013C8.27159 20.1013 9.02133 20.4528 9.54173 21.7752C9.54173 21.7752 10.2133 23.8169 13.396 23.1249C13.4008 24.0808 13.4115 24.982 13.4115 25.2548C13.4115 25.3505 13.3901 25.4515 13.3432 25.5413C14.3268 25.8416 15.3695 26.0045 16.4501 26.0045C17.4064 26.0045 18.3327 25.8764 19.2148 25.6393C19.1228 25.53 19.0836 25.3875 19.0836 25.2548Z" fill="white"/>
<path opacity="0.1" d="M5.62909 26.3709C8.28322 29.0251 11.9499 30.6667 16 30.6667C24.1002 30.6667 30.6667 24.1001 30.6667 16C30.6667 11.9499 29.0251 8.2832 26.371 5.62907L5.62909 26.3709Z" fill="#231F20"/>
</svg>
